<svg width="41" height="41" viewBox="0 0 41 41" fill="none" xmlns="http://www.w3.org/2000/svg">
<path d="M30.101 11.8144L28.6609 9.32007C28.4924 9.02941 28.2329 8.80235 27.9224 8.67399C27.6119 8.54562 27.2678 8.5231 26.9433 8.60991L25.4766 9.00521C24.8829 8.55064 24.2324 8.17556 23.5415 7.88945L23.1505 6.42188C23.0642 6.09693 22.8729 5.80962 22.6064 5.60459C22.3399 5.39956 22.0132 5.28829 21.677 5.28809H18.7967C18.4608 5.28816 18.1343 5.39919 17.868 5.60392C17.6017 5.80864 17.4104 6.0956 17.324 6.42021L16.9322 7.88945C16.2414 8.17556 15.5909 8.55064 14.9972 9.00521L13.5304 8.60991C13.2058 8.52308 12.8617 8.54558 12.5513 8.67395C12.2408 8.80232 11.9813 9.0294 11.8128 9.32007L10.3727 11.8144C10.205 12.1056 10.1381 12.4439 10.1822 12.7769C10.2263 13.11 10.379 13.4192 10.6167 13.6566L11.6907 14.7281C11.5888 15.4702 11.5888 16.2227 11.6907 16.9647L10.6167 18.0362C10.379 18.2736 10.2263 18.5829 10.1822 18.9159C10.1381 19.249 10.205 19.5873 10.3727 19.8784L11.8128 22.3728C11.9813 22.6634 12.2409 22.8904 12.5513 23.0188C12.8618 23.1471 13.2058 23.1697 13.5304 23.0829L14.9972 22.6877C15.5909 23.1422 16.2414 23.5173 16.9322 23.8034L17.3232 25.2709C17.4095 25.5959 17.6008 25.8832 17.8673 26.0882C18.1338 26.2933 18.4605 26.4045 18.7967 26.4047H21.677C22.0129 26.4047 22.3394 26.2937 22.6057 26.089C22.872 25.8842 23.0632 25.5973 23.1497 25.2727L23.5415 23.8034C24.2324 23.5173 24.8829 23.1422 25.4766 22.6877L26.9433 23.0829C27.2678 23.1698 27.612 23.1474 27.9225 23.019C28.233 22.8906 28.4925 22.6635 28.6609 22.3728L30.101 19.8784C30.2687 19.5873 30.3356 19.249 30.2915 18.9159C30.2474 18.5829 30.0947 18.2737 29.857 18.0362L28.7829 16.9647C28.8849 16.2227 28.8849 15.4702 28.7829 14.7281L29.857 13.6566C30.0947 13.4192 30.2474 13.11 30.2915 12.7769C30.3356 12.4439 30.2687 12.1056 30.101 11.8144ZM27.0266 14.8755C27.124 15.5194 27.124 16.1743 27.0266 16.8182C26.9913 17.0545 27.0118 17.2957 27.0862 17.5226C27.1607 17.7496 27.2871 17.956 27.4554 18.1255L28.4865 19.1545L27.2268 21.3369L25.8142 20.9563C25.5849 20.8944 25.3442 20.8876 25.1118 20.9362C24.8793 20.9849 24.6616 21.0877 24.4764 21.2364C23.9624 21.6408 23.3929 21.9691 22.7853 22.2112C22.565 22.299 22.368 22.4368 22.2098 22.6136C22.0516 22.7905 21.9366 23.0015 21.8738 23.2303L21.4965 24.645H18.9772L18.6 23.2281C18.5366 22.9997 18.4213 22.7889 18.263 22.6124C18.1047 22.436 17.9078 22.2985 17.6875 22.2107C17.0806 21.9689 16.5117 21.6411 15.9982 21.2373C15.8127 21.0884 15.5948 20.9854 15.362 20.9366C15.1293 20.8878 14.8883 20.8945 14.6586 20.9563L13.2468 21.3369L11.9872 19.1545L13.0174 18.1264C13.1861 17.9568 13.3128 17.7501 13.3873 17.5228C13.4619 17.2955 13.4824 17.054 13.447 16.8174C13.3497 16.1735 13.3497 15.5186 13.447 14.8746C13.4823 14.6384 13.4619 14.3972 13.3875 14.1702C13.3131 13.9432 13.1866 13.7368 13.0183 13.5673L11.9872 12.5384L13.2468 10.3559L14.6595 10.7365C14.8889 10.7979 15.1294 10.8046 15.3618 10.7559C15.5942 10.7072 15.8118 10.6047 15.9973 10.4564C16.5113 10.0521 17.0808 9.72377 17.6883 9.48164C17.9087 9.3938 18.1057 9.25606 18.2639 9.07925C18.4221 8.90244 18.5371 8.69136 18.6 8.4626L18.9772 7.04782H21.4965L21.8738 8.46471C21.9371 8.69319 22.0524 8.90392 22.2107 9.08041C22.369 9.25691 22.566 9.39438 22.7862 9.48208C23.3931 9.72393 23.962 10.0518 24.4756 10.4555C24.661 10.6044 24.879 10.7074 25.1117 10.7562C25.3445 10.805 25.5854 10.7983 25.8151 10.7365L27.2268 10.3559L28.4865 12.5384L27.4562 13.5664C27.2876 13.7361 27.1609 13.9428 27.0864 14.1701C27.0118 14.3974 26.9913 14.6389 27.0266 14.8755Z" fill="#8E76E3"/>
<path d="M20.2372 11.4473C19.3671 11.4473 18.5165 11.7053 17.7931 12.1887C17.0696 12.6721 16.5057 13.3592 16.1728 14.163C15.8398 14.9669 15.7527 15.8514 15.9224 16.7048C16.0922 17.5582 16.5112 18.3421 17.1264 18.9573C17.7417 19.5726 18.5255 19.9916 19.3789 20.1613C20.2323 20.3311 21.1169 20.244 21.9207 19.911C22.7246 19.578 23.4117 19.0141 23.8951 18.2907C24.3785 17.5672 24.6365 16.7167 24.6365 15.8466C24.6351 14.6802 24.1712 13.5621 23.3464 12.7373C22.5217 11.9126 21.4035 11.4487 20.2372 11.4473ZM20.2372 18.4861C19.7151 18.4861 19.2048 18.3313 18.7707 18.0413C18.3367 17.7512 17.9983 17.339 17.7986 16.8567C17.5988 16.3744 17.5465 15.8436 17.6483 15.3316C17.7502 14.8196 18.0016 14.3493 18.3707 13.9801C18.7399 13.611 19.2102 13.3596 19.7222 13.2577C20.2343 13.1559 20.765 13.2081 21.2473 13.4079C21.7296 13.6077 22.1419 13.946 22.4319 14.3801C22.7219 14.8142 22.8767 15.3245 22.8767 15.8466C22.876 16.5464 22.5976 17.2173 22.1028 17.7122C21.6079 18.207 20.937 18.4853 20.2372 18.4861Z" fill="#8E76E3"/>
<path d="M31.3839 4.26687C29.629 2.68525 27.5565 1.49664 25.3052 0.780555C23.0538 0.0644678 20.6755 -0.162584 18.3294 0.114589C15.0015 0.494246 11.8646 1.8655 9.32592 4.05036C6.7872 6.23522 4.96387 9.13278 4.09263 12.3669C3.22138 15.6011 3.34245 19.0224 4.44011 22.1869C5.53778 25.3514 7.56135 28.1128 10.2482 30.1127C10.8965 30.6056 11.4211 31.2427 11.7804 31.9736C12.1397 32.7045 12.3238 33.509 12.3181 34.3234C12.32 34.8807 12.4987 35.4231 12.8284 35.8724C13.158 36.3218 13.6218 36.655 14.1528 36.8241C14.327 37.8457 14.8564 38.773 15.6476 39.4423C16.4387 40.1116 17.4409 40.4799 18.4772 40.4824H21.9967C23.033 40.4799 24.0352 40.1115 24.8264 39.4421C25.6176 38.7728 26.1469 37.8455 26.3211 36.8239C26.8551 36.6517 27.3206 36.3142 27.6504 35.8602C27.9801 35.4062 28.1571 34.8591 28.1557 34.298C28.1525 33.4883 28.3374 32.6889 28.6961 31.9629C29.0547 31.237 29.5772 30.6043 30.2222 30.1148C32.3179 28.5696 34.0197 26.5519 35.1894 24.2256C36.3592 21.8994 36.9639 19.33 36.9545 16.7263C36.9529 14.3748 36.456 12.05 35.4962 9.90326C34.5364 7.75655 33.1352 5.83607 31.3839 4.26687ZM21.9967 38.7227H18.4772C17.9314 38.722 17.3992 38.5525 16.9536 38.2375C16.5079 37.9224 16.1706 37.4772 15.988 36.9629H24.4859C24.3033 37.4772 23.966 37.9224 23.5203 38.2374C23.0747 38.5525 22.5425 38.722 21.9967 38.7227ZM25.5162 35.2033H14.9577C14.8403 35.2024 14.7242 35.1782 14.6161 35.1321C14.5081 35.086 14.4103 35.0189 14.3285 34.9347C14.2466 34.8504 14.1823 34.7508 14.1393 34.6415C14.0962 34.5322 14.0754 34.4154 14.0778 34.298C14.0772 34.0124 14.0592 33.727 14.024 33.4435H26.4527C26.4158 33.7354 26.3969 34.0292 26.396 34.3234C26.3958 34.5566 26.303 34.7803 26.1381 34.9453C25.9731 35.1103 25.7494 35.203 25.5162 35.2033ZM29.1705 28.7039C28.1559 29.469 27.3734 30.5005 26.91 31.6838H13.5654C13.0997 30.4999 12.3156 29.4679 11.2999 28.7018C8.89643 26.9129 7.08608 24.4429 6.10381 21.6123C5.12155 18.7818 5.01272 15.7213 5.79145 12.8281C6.57019 9.93491 8.20053 7.34256 10.4709 5.38746C12.7413 3.43237 15.5469 2.20479 18.5236 1.86403C19.0993 1.7997 19.6782 1.76742 20.2575 1.76732C23.9334 1.75642 27.4816 3.11497 30.2103 5.57807C31.7772 6.98217 33.031 8.70055 33.8898 10.6213C34.7486 12.5421 35.1932 14.6222 35.1948 16.7263C35.2031 19.0558 34.6619 21.3545 33.6152 23.4356C32.5685 25.5167 31.0457 27.3217 29.1705 28.7039Z" fill="#8E76E3"/>
<path d="M36.0743 5.28786C36.1899 5.28801 36.3044 5.26532 36.4111 5.22108C36.5179 5.17685 36.6148 5.11195 36.6964 5.03011L40.2159 1.51073C40.3756 1.34466 40.4639 1.12256 40.4616 0.892149C40.4594 0.661733 40.3669 0.441388 40.2039 0.278458C40.041 0.115528 39.8206 0.0230134 39.5902 0.0207929C39.3598 0.0185724 39.1377 0.106823 38.9717 0.266583L35.4523 3.78597C35.332 3.91006 35.2507 4.06661 35.2183 4.23635C35.1859 4.40608 35.2039 4.58158 35.27 4.74122C35.3362 4.90086 35.4475 5.03768 35.5905 5.13481C35.7334 5.23194 35.9016 5.28514 36.0743 5.28786Z" fill="#8E76E3"/>
<path d="M3.77698 5.03016C3.94305 5.18984 4.16511 5.27801 4.39548 5.27575C4.62585 5.27349 4.84614 5.18098 5.00904 5.01807C5.17194 4.85517 5.26446 4.63488 5.26672 4.40451C5.26898 4.17415 5.1808 3.95208 5.02113 3.78602L1.50174 0.266545C1.33664 0.102056 1.11302 0.00979386 0.879966 0.0100101C0.64691 0.0102264 0.423461 0.102903 0.258666 0.267699C0.0938702 0.432495 0.00119322 0.655944 0.000976942 0.889C0.00076066 1.12206 0.0930228 1.34568 0.257512 1.51078L3.77698 5.03016Z" fill="#8E76E3"/>
<path d="M3.77713 29.3022L0.257658 32.8216C0.175966 32.9033 0.111166 33.0003 0.066957 33.1071C0.022748 33.2138 -4.08523e-06 33.3282 5.5019e-10 33.4437C4.08633e-06 33.5593 0.0227641 33.6737 0.0669807 33.7804C0.111197 33.8871 0.176004 33.9841 0.257702 34.0658C0.339399 34.1475 0.436387 34.2123 0.543128 34.2565C0.649868 34.3007 0.764271 34.3235 0.879805 34.3235C0.995338 34.3235 1.10974 34.3007 1.21648 34.2565C1.32321 34.2123 1.4202 34.1475 1.50189 34.0658L5.02136 30.5464C5.18066 30.3802 5.26852 30.1583 5.26609 29.9281C5.26367 29.6979 5.17116 29.4779 5.0084 29.3151C4.84563 29.1524 4.62558 29.0598 4.39541 29.0574C4.16524 29.055 3.94328 29.1429 3.77713 29.3022Z" fill="#8E76E3"/>
<path d="M36.6965 29.3019C36.5305 29.1422 36.3084 29.054 36.0779 29.0562C35.8475 29.0584 35.6272 29.151 35.4642 29.3139C35.3013 29.4768 35.2088 29.6972 35.2066 29.9276C35.2044 30.158 35.2926 30.3801 35.4524 30.5462L38.9718 34.0656C39.0535 34.1475 39.1505 34.2126 39.2573 34.2571C39.3641 34.3015 39.4786 34.3245 39.5943 34.3246C39.71 34.3247 39.8246 34.302 39.9315 34.2578C40.0384 34.2136 40.1356 34.1487 40.2174 34.0669C40.2992 33.9851 40.364 33.888 40.4083 33.7811C40.4525 33.6742 40.4752 33.5596 40.475 33.4439C40.4749 33.3282 40.452 33.2137 40.4075 33.1068C40.3631 33 40.298 32.903 40.216 32.8214L36.6965 29.3019Z" fill="#8E76E3"/>
</svg>
