<svg width="44" height="44" viewBox="0 0 44 44" fill="none" xmlns="http://www.w3.org/2000/svg">
<path d="M38.5237 21.6136C38.187 21.614 37.8535 21.548 37.5424 21.4195C37.2312 21.2909 36.9484 21.1023 36.7101 20.8644L26.1026 10.2569C25.6226 9.77537 25.353 9.12322 25.353 8.44335C25.353 7.76347 25.6226 7.11132 26.1026 6.62983L27.821 4.91145C28.0595 4.67288 28.3427 4.48363 28.6543 4.35451C28.966 4.22539 29.3001 4.15894 29.6374 4.15894C29.9748 4.15894 30.3089 4.22539 30.6205 4.35451C30.9322 4.48363 31.2154 4.67288 31.4539 4.91145L42.0615 15.5131C42.5419 15.9956 42.8116 16.6487 42.8116 17.3296C42.8116 18.0104 42.5419 18.6635 42.0615 19.146L40.3372 20.8644C40.0993 21.1028 39.8166 21.2918 39.5053 21.4204C39.1941 21.549 38.8604 21.6146 38.5237 21.6136ZM29.6404 5.35145C29.4592 5.3512 29.2798 5.3868 29.1125 5.45619C28.9451 5.52558 28.7931 5.6274 28.6653 5.75578L26.9469 7.47416C26.8182 7.60184 26.716 7.75374 26.6463 7.92111C26.5766 8.08847 26.5407 8.26798 26.5407 8.44929C26.5407 8.6306 26.5766 8.81011 26.6463 8.97747C26.716 9.14484 26.8182 9.29674 26.9469 9.42443L37.5485 20.026C37.808 20.2831 38.1584 20.4273 38.5237 20.4273C38.8889 20.4273 39.2394 20.2831 39.4988 20.026L41.2172 18.3077C41.4742 18.0482 41.6185 17.6978 41.6185 17.3325C41.6185 16.9673 41.4742 16.6168 41.2172 16.3574L30.6096 5.74983C30.4822 5.62297 30.331 5.52249 30.1647 5.45413C29.9984 5.38577 29.8202 5.35088 29.6404 5.35145Z" fill="#8E76E3"/>
<path d="M33.2615 30.2291C32.8662 30.2291 32.4748 30.1502 32.1103 29.997C31.7458 29.8439 31.4155 29.6196 31.1388 29.3372L30.2112 28.4156C30.1558 28.3602 30.1118 28.2944 30.0818 28.2219C30.0518 28.1495 30.0364 28.0719 30.0364 27.9935C30.0364 27.9151 30.0518 27.8374 30.0818 27.765C30.1118 27.6926 30.1558 27.6267 30.2112 27.5713C30.2667 27.5159 30.3325 27.4719 30.4049 27.4419C30.4774 27.4119 30.555 27.3964 30.6334 27.3964C30.7118 27.3964 30.7894 27.4119 30.8619 27.4419C30.9343 27.4719 31.0001 27.5159 31.0556 27.5713L31.9831 28.4989C32.2804 28.8123 32.6852 29.0019 33.1164 29.0294C33.5475 29.057 33.9732 28.9206 34.308 28.6475C34.4762 28.4981 34.6113 28.315 34.7045 28.1102C34.7977 27.9054 34.8469 27.6833 34.8491 27.4583C34.8542 27.2383 34.8147 27.0194 34.733 26.815C34.6512 26.6106 34.5289 26.4249 34.3734 26.2691L25.288 17.2016C25.2431 17.1571 25.1861 17.1269 25.1241 17.1147C25.0621 17.1024 24.9979 17.1088 24.9395 17.1329C24.8811 17.157 24.8311 17.1979 24.7958 17.2503C24.7605 17.3027 24.7414 17.3643 24.741 17.4275V20.2637C24.741 21.0112 24.444 21.7281 23.9155 22.2566C23.3869 22.7852 22.6701 23.0821 21.9226 23.0821C21.1751 23.0821 20.4582 22.7852 19.9297 22.2566C19.4011 21.7281 19.1042 21.0112 19.1042 20.2637V15.4594C19.0831 15.1645 19.0831 14.8684 19.1042 14.5735C19.1603 13.7637 19.4448 12.9864 19.9247 12.3318C20.5889 11.4995 21.542 10.9476 22.5945 10.7859H22.6718L28.1361 10.8394C28.2938 10.8394 28.445 10.902 28.5565 11.0136C28.668 11.1251 28.7307 11.2763 28.7307 11.434C28.7307 11.5917 28.668 11.7429 28.5565 11.8544C28.445 11.9659 28.2938 12.0286 28.1361 12.0286L22.7193 11.9751C22.0161 12.1189 21.3852 12.5037 20.9356 13.0632C20.585 13.5424 20.3788 14.1118 20.341 14.7043C20.3195 14.9496 20.3195 15.1963 20.341 15.4416V20.2518C20.3366 20.6595 20.487 21.0537 20.7617 21.3549C21.0364 21.6561 21.4151 21.842 21.8215 21.8751C22.0509 21.8882 22.2805 21.8532 22.4955 21.7723C22.7106 21.6914 22.9063 21.5664 23.0701 21.4053C23.3717 21.1039 23.5426 20.696 23.5458 20.2697V17.4275C23.5444 17.1286 23.6321 16.836 23.7976 16.5871C23.9632 16.3382 24.1992 16.1443 24.4754 16.0301C24.7517 15.9159 25.0557 15.8866 25.3487 15.9459C25.6417 16.0052 25.9104 16.1505 26.1204 16.3632L35.2118 25.4426C35.4813 25.7148 35.6926 26.039 35.8327 26.3955C35.9728 26.752 36.0387 27.1333 36.0264 27.5162C36.0142 27.899 35.924 28.2754 35.7615 28.6222C35.5989 28.969 35.3674 29.2791 35.081 29.5335C34.5789 29.9784 33.9323 30.2256 33.2615 30.2291Z" fill="#8E76E3"/>
<path d="M29.9378 33.3983C29.1767 33.3966 28.4475 33.0929 27.9102 32.554L26.9945 31.6383C26.8971 31.5245 26.8462 31.3782 26.852 31.2286C26.8578 31.0789 26.9198 30.937 27.0257 30.8311C27.1316 30.7252 27.2736 30.6632 27.4232 30.6574C27.5729 30.6516 27.7192 30.7025 27.8329 30.7999L28.7486 31.7156C28.8988 31.8958 29.085 32.0426 29.2951 32.1469C29.5053 32.2511 29.7349 32.3104 29.9692 32.321C30.2036 32.3316 30.4376 32.2932 30.6563 32.2084C30.875 32.1235 31.0736 31.994 31.2395 31.8281C31.4054 31.6623 31.5349 31.4636 31.6198 31.2449C31.7046 31.0262 31.743 30.7922 31.7324 30.5579C31.7218 30.3235 31.6625 30.0939 31.5583 29.8838C31.454 29.6736 31.3071 29.4875 31.127 29.3372L30.2113 28.4215C30.1139 28.3078 30.063 28.1615 30.0688 28.0118C30.0745 27.8622 30.1366 27.7202 30.2425 27.6143C30.3484 27.5084 30.4903 27.4464 30.64 27.4406C30.7896 27.4348 30.9359 27.4858 31.0497 27.5832L31.9653 28.4988C32.3652 28.9016 32.6371 29.4136 32.7467 29.9705C32.8563 30.5273 32.7989 31.1042 32.5815 31.6285C32.3642 32.1528 31.9967 32.6011 31.5252 32.917C31.0538 33.233 30.4994 33.4025 29.9318 33.4042L29.9378 33.3983Z" fill="#8E76E3"/>
<path d="M26.7151 36.6208C26.3381 36.6209 25.9649 36.5464 25.6169 36.4015C25.2689 36.2566 24.953 36.0441 24.6876 35.7765C24.5768 35.6651 24.5146 35.5144 24.5146 35.3573C24.5146 35.2002 24.5768 35.0495 24.6876 34.9381C24.799 34.8273 24.9497 34.7652 25.1067 34.7652C25.2638 34.7652 25.4145 34.8273 25.5259 34.9381C25.8496 35.208 26.2626 35.3472 26.6837 35.3281C27.1047 35.3091 27.5034 35.1333 27.8015 34.8353C28.0995 34.5372 28.2753 34.1385 28.2944 33.7174C28.3134 33.2964 28.1743 32.8834 27.9043 32.5597L26.9946 31.6381C26.8972 31.5243 26.8463 31.378 26.852 31.2284C26.8578 31.0787 26.9199 30.9368 27.0258 30.8309C27.1317 30.725 27.2736 30.663 27.4232 30.6572C27.5729 30.6514 27.7192 30.7023 27.833 30.7997L28.7486 31.7154C29.1485 32.1182 29.4204 32.6302 29.53 33.187C29.6396 33.7439 29.5822 34.3207 29.3648 34.845C29.1475 35.3693 28.78 35.8176 28.3085 36.1336C27.837 36.4496 27.2827 36.6191 26.7151 36.6208Z" fill="#8E76E3"/>
<path d="M23.4924 39.8379C23.1155 39.8377 22.7423 39.763 22.3944 39.6181C22.0464 39.4732 21.7305 39.261 21.4649 38.9936L20.2162 37.7747C20.1188 37.6609 20.0679 37.5146 20.0737 37.365C20.0795 37.2153 20.1415 37.0734 20.2474 36.9675C20.3533 36.8616 20.4952 36.7995 20.6449 36.7937C20.7945 36.788 20.9408 36.8389 21.0546 36.9363L22.2795 38.1611C22.6032 38.4311 23.0161 38.5702 23.4372 38.5512C23.8582 38.5322 24.257 38.3564 24.555 38.0583C24.8531 37.7603 25.0289 37.3616 25.0479 36.9405C25.0669 36.5194 24.9278 36.1065 24.6578 35.7828C24.5471 35.6714 24.4849 35.5207 24.4849 35.3636C24.4849 35.2065 24.5471 35.0558 24.6578 34.9444C24.7692 34.8336 24.9199 34.7715 25.077 34.7715C25.2341 34.7715 25.3848 34.8336 25.4962 34.9444C25.8904 35.3459 26.1583 35.8542 26.2666 36.4063C26.3749 36.9585 26.3191 37.5303 26.1058 38.051C25.8926 38.5717 25.5314 39.0185 25.0669 39.3361C24.6024 39.6537 24.055 39.8282 23.4924 39.8379Z" fill="#8E76E3"/>
<path d="M18.5278 39.1483C17.7723 39.1485 17.0474 38.8492 16.5122 38.3158C15.9802 37.781 15.6816 37.0574 15.6816 36.3031C15.6816 35.5488 15.9802 34.8252 16.5122 34.2904L17.963 32.8396C18.2273 32.5745 18.5412 32.3641 18.8869 32.2203C19.2325 32.0765 19.6031 32.0023 19.9774 32.0017C20.3518 32.0012 20.7226 32.0743 21.0686 32.2171C21.4147 32.3598 21.7292 32.5693 21.9943 32.8337C22.2594 33.098 22.4699 33.4119 22.6136 33.7575C22.7574 34.1032 22.8317 34.4738 22.8322 34.8481C22.8328 35.2224 22.7596 35.5932 22.6168 35.9393C22.4741 36.2854 22.2646 36.5999 22.0003 36.865L20.5435 38.3158C20.2793 38.581 19.9651 38.7911 19.6191 38.934C19.2731 39.0769 18.9022 39.1497 18.5278 39.1483ZM17.3387 37.4774C17.6504 37.7861 18.0713 37.9592 18.51 37.9592C18.9487 37.9592 19.3696 37.7861 19.6814 37.4774L21.1322 36.0207C21.2998 35.8701 21.435 35.687 21.5295 35.4824C21.624 35.2779 21.6759 35.0562 21.6819 34.831C21.688 34.6057 21.648 34.3816 21.5646 34.1723C21.4812 33.963 21.356 33.7728 21.1966 33.6135C21.0373 33.4542 20.8472 33.329 20.6379 33.2455C20.4286 33.1621 20.2044 33.1222 19.9792 33.1282C19.7539 33.1343 19.5323 33.1861 19.3277 33.2806C19.1232 33.3752 18.94 33.5104 18.7895 33.678L17.3387 35.1288C17.1797 35.2834 17.0534 35.4683 16.9671 35.6725C16.8808 35.8768 16.8364 36.0963 16.8364 36.318C16.8364 36.5397 16.8808 36.7592 16.9671 36.9634C17.0534 37.1677 17.1797 37.3526 17.3387 37.5072V37.4774Z" fill="#8E76E3"/>
<path d="M14.9184 36.3832C14.5452 36.3832 14.1756 36.3097 13.8307 36.1669C13.4859 36.024 13.1726 35.8147 12.9087 35.5508C12.3753 35.0167 12.0757 34.2928 12.0757 33.5381C12.0757 32.7833 12.3753 32.0594 12.9087 31.5254L14.7816 29.6524C15.0424 29.3728 15.3569 29.1486 15.7062 28.9931C16.0555 28.8377 16.4325 28.7541 16.8148 28.7475C17.1971 28.7409 17.5768 28.8113 17.9313 28.9545C18.2858 29.0978 18.6078 29.3109 18.8782 29.5813C19.1485 29.8516 19.3617 30.1736 19.5049 30.5281C19.6482 30.8826 19.7186 31.2623 19.7119 31.6446C19.7053 32.0269 19.6217 32.4039 19.4663 32.7532C19.3108 33.1026 19.0866 33.417 18.807 33.6778L16.9341 35.5508C16.6694 35.8154 16.3552 36.0252 16.0092 36.168C15.6633 36.3109 15.2926 36.384 14.9184 36.3832ZM16.7914 30.0091C16.5711 30.0064 16.3525 30.0476 16.1483 30.1303C15.9442 30.213 15.7585 30.3356 15.6022 30.4908L13.7292 32.3637C13.5717 32.5192 13.4467 32.7043 13.3613 32.9085C13.276 33.1126 13.232 33.3317 13.232 33.5529C13.232 33.7742 13.276 33.9933 13.3613 34.1974C13.4467 34.4015 13.5717 34.5867 13.7292 34.7421C14.0419 35.0511 14.4639 35.2244 14.9035 35.2244C15.3432 35.2244 15.7651 35.0511 16.0779 34.7421L17.9449 32.8691C18.1773 32.6361 18.3351 32.3391 18.3983 32.0161C18.4615 31.6931 18.4271 31.3586 18.2996 31.0551C18.1721 30.7517 17.9572 30.493 17.6823 30.312C17.4074 30.1311 17.0848 30.036 16.7557 30.0389L16.7914 30.0091Z" fill="#8E76E3"/>
<path d="M11.2974 33.6183C10.7348 33.6179 10.1849 33.4508 9.71717 33.1382C9.24942 32.8256 8.88474 32.3814 8.66913 31.8618C8.45352 31.3421 8.39663 30.7703 8.50564 30.2184C8.61466 29.6664 8.88469 29.1591 9.28168 28.7605L11.5768 26.4654C11.8376 26.1858 12.152 25.9616 12.5014 25.8061C12.8507 25.6507 13.2277 25.5671 13.61 25.5605C13.9923 25.5539 14.372 25.6243 14.7265 25.7675C15.081 25.9107 15.403 26.1239 15.6733 26.3942C15.9437 26.6646 16.1569 26.9866 16.3001 27.3411C16.4433 27.6956 16.5137 28.0753 16.5071 28.4576C16.5005 28.8399 16.4169 29.2169 16.2615 29.5662C16.106 29.9155 15.8818 30.23 15.6022 30.4908L13.313 32.7859C12.7778 33.3193 12.0529 33.6186 11.2974 33.6183ZM13.5925 26.8221C13.3723 26.8201 13.1539 26.8616 12.9498 26.9442C12.7457 27.0269 12.56 27.1491 12.4033 27.3038L10.1141 29.5989C9.80345 29.9135 9.63049 30.3386 9.63327 30.7808C9.63606 31.2229 9.81437 31.6458 10.129 31.9565C10.4436 32.2671 10.8687 32.4401 11.3108 32.4373C11.753 32.4345 12.1759 32.2562 12.4865 31.9416L14.7817 29.6524C15.0141 29.4193 15.1719 29.1224 15.2351 28.7994C15.2983 28.4763 15.2639 28.1418 15.1364 27.8384C15.0089 27.5349 14.794 27.2763 14.5191 27.0953C14.2442 26.9143 13.9216 26.8192 13.5925 26.8221Z" fill="#8E76E3"/>
<path d="M8.97272 29.593C8.40891 29.5937 7.85757 29.427 7.38856 29.1141C6.91954 28.8012 6.55395 28.3561 6.33809 27.8353C6.12223 27.3144 6.06583 26.7412 6.17601 26.1882C6.2862 25.6353 6.55802 25.1275 6.95705 24.7292L8.40786 23.2784C8.66867 22.9988 8.9831 22.7746 9.33241 22.6191C9.68171 22.4637 10.0587 22.3801 10.441 22.3735C10.8233 22.3668 11.203 22.4372 11.5575 22.5805C11.912 22.7237 12.234 22.9369 12.5044 23.2072C12.7747 23.4776 12.9879 23.7996 13.1311 24.1541C13.2744 24.5086 13.3448 24.8883 13.3382 25.2706C13.3315 25.6529 13.248 26.0299 13.0925 26.3792C12.937 26.7285 12.7128 27.043 12.4333 27.3038L10.9825 28.7605C10.7185 29.0244 10.4052 29.2338 10.0604 29.3766C9.71555 29.5195 9.34596 29.593 8.97272 29.593ZM10.4235 23.647C10.2026 23.6434 9.98326 23.6848 9.77883 23.7686C9.57439 23.8524 9.38914 23.9769 9.23435 24.1346L7.79543 25.5676C7.63926 25.7218 7.515 25.9052 7.42973 26.1075C7.34447 26.3097 7.29988 26.5268 7.2985 26.7462C7.29711 26.9657 7.33898 27.1833 7.42169 27.3866C7.5044 27.5899 7.62635 27.7749 7.78056 27.9311C7.93478 28.0872 8.11824 28.2115 8.32048 28.2968C8.52272 28.382 8.73977 28.4266 8.95924 28.428C9.17871 28.4294 9.39631 28.3875 9.5996 28.3048C9.8029 28.2221 9.98791 28.1001 10.1441 27.9459L11.5949 26.4951C11.8273 26.2621 11.9851 25.9651 12.0483 25.6421C12.1115 25.3191 12.0771 24.9845 11.9496 24.6811C11.8221 24.3777 11.6073 24.119 11.3323 23.938C11.0574 23.7571 10.7348 23.662 10.4057 23.6648L10.4235 23.647Z" fill="#8E76E3"/>
<path d="M8.48495 24.6459C8.3515 24.6508 8.22027 24.6107 8.1124 24.532C8.00454 24.4532 7.92632 24.3405 7.89036 24.2118C7.55189 22.9795 7.54695 21.6793 7.87605 20.4444C8.20515 19.2095 8.85646 18.0842 9.76333 17.1837L13.6758 13.2832C14.5763 12.3801 15.7397 11.7854 16.9992 11.5846C18.2586 11.3837 19.5493 11.5871 20.686 12.1654C20.7623 12.2038 20.8294 12.2582 20.8828 12.3249C20.9361 12.3916 20.9745 12.469 20.9952 12.5518C21.0164 12.6361 21.0188 12.7239 21.0024 12.8092C20.9859 12.8944 20.951 12.975 20.9001 13.0454C20.5492 13.5289 20.343 14.1021 20.3055 14.6983C20.2995 14.7765 20.2781 14.8527 20.2425 14.9226C20.2069 14.9925 20.1579 15.0546 20.0982 15.1054C20.0385 15.1563 19.9694 15.1948 19.8947 15.2188C19.8201 15.2428 19.7415 15.2519 19.6633 15.2454C19.5851 15.2386 19.509 15.2165 19.4394 15.1802C19.3698 15.144 19.3081 15.0943 19.2578 15.034C19.2075 14.9738 19.1696 14.9041 19.1464 14.8292C19.1231 14.7542 19.1149 14.6754 19.1222 14.5973C19.1642 14.0338 19.3114 13.4832 19.5563 12.974C18.6941 12.6709 17.7637 12.6178 16.8726 12.8209C15.9814 13.0239 15.1659 13.4748 14.5201 14.1216L10.6136 18.0281C9.8616 18.782 9.32248 19.7215 9.05097 20.7512C8.77945 21.7809 8.78521 22.864 9.06766 23.8908C9.10978 24.0421 9.09028 24.204 9.0134 24.3411C8.93652 24.4781 8.80853 24.5792 8.65739 24.6221C8.60174 24.6401 8.54338 24.6481 8.48495 24.6459Z" fill="#8E76E3"/>
<path d="M33.0357 24.7052C32.9114 24.702 32.7912 24.6598 32.6921 24.5847C32.5929 24.5096 32.5199 24.4054 32.4831 24.2866C32.4464 24.1677 32.4478 24.0404 32.4872 23.9224C32.5266 23.8045 32.602 23.7019 32.7027 23.629C35.0811 21.8928 34.7184 18.7057 34.7125 18.6701C34.7035 18.592 34.71 18.5129 34.7316 18.4373C34.7531 18.3617 34.7894 18.2912 34.8383 18.2296C34.8871 18.168 34.9476 18.1167 35.0163 18.0785C35.085 18.0403 35.1606 18.0161 35.2387 18.0071C35.3168 17.9981 35.3958 18.0046 35.4714 18.0262C35.547 18.0478 35.6176 18.084 35.6791 18.1329C35.7407 18.1818 35.792 18.2423 35.8302 18.311C35.8684 18.3797 35.8927 18.4552 35.9016 18.5333C35.9016 18.6879 36.3357 22.4338 33.4103 24.5863C33.3025 24.6672 33.1704 24.7092 33.0357 24.7052Z" fill="#8E76E3"/>
<path d="M5.46446 22.1013C4.79357 22.0945 4.15248 21.8231 3.68068 21.3461L1.93851 19.6218C1.45851 19.1403 1.18896 18.4882 1.18896 17.8083C1.18896 17.1284 1.45851 16.4763 1.93851 15.9948L12.3023 5.64289C12.7848 5.16251 13.4379 4.89282 14.1188 4.89282C14.7996 4.89282 15.4528 5.16251 15.9353 5.64289L17.6418 7.35532C17.8809 7.59294 18.0706 7.8755 18.2001 8.18673C18.3296 8.49797 18.3962 8.83174 18.3962 9.16883C18.3962 9.50593 18.3296 9.8397 18.2001 10.1509C18.0706 10.4622 17.8809 10.7447 17.6418 10.9823L7.28392 21.3461C7.04585 21.5863 6.76239 21.7768 6.45003 21.9064C6.13767 22.0361 5.80265 22.1023 5.46446 22.1013ZM14.1158 6.08289C13.9355 6.08244 13.7569 6.11797 13.5905 6.18739C13.4241 6.25682 13.2732 6.35875 13.1466 6.48721L2.78284 16.845C2.52432 17.1037 2.37909 17.4545 2.37909 17.8202C2.37909 18.1859 2.52432 18.5366 2.78284 18.7953L4.49527 20.5078C4.75733 20.7575 5.10544 20.8968 5.46743 20.8968C5.82943 20.8968 6.17754 20.7575 6.43959 20.5078L16.8034 10.144C17.0619 9.88529 17.2071 9.53454 17.2071 9.16883C17.2071 8.80312 17.0619 8.45237 16.8034 8.1937L15.0909 6.48721C14.9637 6.35803 14.8118 6.25568 14.6444 6.18623C14.4769 6.11679 14.2971 6.08164 14.1158 6.08289Z" fill="#8E76E3"/>
</svg>
