<svg width="44" height="44" viewBox="0 0 44 44" fill="none" xmlns="http://www.w3.org/2000/svg">
<g clip-path="url(#clip0_296_2126)">
<path d="M41.8 19.8C40.8452 19.8 40.0385 20.4153 39.7349 21.2667H35.2V18.3333H39.6C40.0055 18.3333 40.3333 18.0055 40.3333 17.6C40.3333 17.1945 40.0055 16.8667 39.6 16.8667H35.2V13.9333H40.3333C41.1422 13.9333 41.8 13.2755 41.8 12.4667V10.8651C42.6514 10.5615 43.2667 9.7548 43.2667 8.8C43.2667 7.58707 42.2796 6.6 41.0667 6.6C39.8537 6.6 38.8667 7.58707 38.8667 8.8C38.8667 9.7548 39.4819 10.5615 40.3333 10.8651V12.4667H35.2V11.7333C35.2 10.1156 33.8844 8.8 32.2667 8.8H31.5333V3.66667H33.1349C33.4385 4.51807 34.2452 5.13333 35.2 5.13333C36.4129 5.13333 37.4 4.14627 37.4 2.93333C37.4 1.7204 36.4129 0.733333 35.2 0.733333C34.2452 0.733333 33.4385 1.3486 33.1349 2.2H31.5333C30.7245 2.2 30.0667 2.8578 30.0667 3.66667V8.8H27.1333V4.4C27.1333 3.99447 26.8055 3.66667 26.4 3.66667C25.9945 3.66667 25.6667 3.99447 25.6667 4.4V8.8H22.7333V4.26507C23.5847 3.96147 24.2 3.1548 24.2 2.2C24.2 0.987067 23.2129 0 22 0C20.7871 0 19.8 0.987067 19.8 2.2C19.8 3.1548 20.4153 3.96147 21.2667 4.26507V8.8H18.3333V4.4C18.3333 3.99447 18.0055 3.66667 17.6 3.66667C17.1945 3.66667 16.8667 3.99447 16.8667 4.4V8.8H13.9333V3.66667C13.9333 2.8578 13.2755 2.2 12.4667 2.2H10.8651C10.5615 1.3486 9.7548 0.733333 8.8 0.733333C7.58707 0.733333 6.6 1.7204 6.6 2.93333C6.6 4.14627 7.58707 5.13333 8.8 5.13333C9.7548 5.13333 10.5615 4.51807 10.8651 3.66667H12.4667V8.8H11.7333C10.1156 8.8 8.8 10.1156 8.8 11.7333V12.4667H3.66667V10.8651C4.51807 10.5615 5.13333 9.7548 5.13333 8.8C5.13333 7.58707 4.14627 6.6 2.93333 6.6C1.7204 6.6 0.733333 7.58707 0.733333 8.8C0.733333 9.7548 1.3486 10.5615 2.2 10.8651V12.4667C2.2 13.2755 2.8578 13.9333 3.66667 13.9333H8.8V16.8667H4.4C3.99447 16.8667 3.66667 17.1945 3.66667 17.6C3.66667 18.0055 3.99447 18.3333 4.4 18.3333H8.8V21.2667H4.26507C3.96147 20.4153 3.1548 19.8 2.2 19.8C0.987067 19.8 0 20.7871 0 22C0 23.2129 0.987067 24.2 2.2 24.2C3.1548 24.2 3.96147 23.5847 4.26507 22.7333H8.8V25.6667H4.4C3.99447 25.6667 3.66667 25.9945 3.66667 26.4C3.66667 26.8055 3.99447 27.1333 4.4 27.1333H8.8V30.0667H3.66667C2.8578 30.0667 2.2 30.7245 2.2 31.5333V33.1349C1.3486 33.4385 0.733333 34.2452 0.733333 35.2C0.733333 36.4129 1.7204 37.4 2.93333 37.4C4.14627 37.4 5.13333 36.4129 5.13333 35.2C5.13333 34.2452 4.51807 33.4385 3.66667 33.1349V31.5333H8.8V32.2667C8.8 33.8844 10.1156 35.2 11.7333 35.2H12.4667V40.3333H10.8651C10.5615 39.4819 9.7548 38.8667 8.8 38.8667C7.58707 38.8667 6.6 39.8537 6.6 41.0667C6.6 42.2796 7.58707 43.2667 8.8 43.2667C9.7548 43.2667 10.5615 42.6514 10.8651 41.8H12.4667C13.2755 41.8 13.9333 41.1422 13.9333 40.3333V35.2H16.8667V39.6C16.8667 40.0055 17.1945 40.3333 17.6 40.3333C18.0055 40.3333 18.3333 40.0055 18.3333 39.6V35.2H21.2667V39.7349C20.4153 40.0385 19.8 40.8452 19.8 41.8C19.8 43.0129 20.7871 44 22 44C23.2129 44 24.2 43.0129 24.2 41.8C24.2 40.8452 23.5847 40.0385 22.7333 39.7349V35.2H25.6667V39.6C25.6667 40.0055 25.9945 40.3333 26.4 40.3333C26.8055 40.3333 27.1333 40.0055 27.1333 39.6V35.2H30.0667V40.3333C30.0667 41.1422 30.7245 41.8 31.5333 41.8H33.1349C33.4385 42.6514 34.2452 43.2667 35.2 43.2667C36.4129 43.2667 37.4 42.2796 37.4 41.0667C37.4 39.8537 36.4129 38.8667 35.2 38.8667C34.2452 38.8667 33.4385 39.4819 33.1349 40.3333H31.5333V35.2H32.2667C33.8844 35.2 35.2 33.8844 35.2 32.2667V31.5333H40.3333V33.1349C39.4819 33.4385 38.8667 34.2452 38.8667 35.2C38.8667 36.4129 39.8537 37.4 41.0667 37.4C42.2796 37.4 43.2667 36.4129 43.2667 35.2C43.2667 34.2452 42.6514 33.4385 41.8 33.1349V31.5333C41.8 30.7245 41.1422 30.0667 40.3333 30.0667H35.2V27.1333H39.6C40.0055 27.1333 40.3333 26.8055 40.3333 26.4C40.3333 25.9945 40.0055 25.6667 39.6 25.6667H35.2V22.7333H39.7349C40.0385 23.5847 40.8452 24.2 41.8 24.2C43.0129 24.2 44 23.2129 44 22C44 20.7871 43.0129 19.8 41.8 19.8ZM41.0667 8.06667C41.4715 8.06667 41.8 8.3952 41.8 8.8C41.8 9.2048 41.4715 9.53333 41.0667 9.53333C40.6619 9.53333 40.3333 9.2048 40.3333 8.8C40.3333 8.3952 40.6619 8.06667 41.0667 8.06667ZM35.2 2.2C35.6048 2.2 35.9333 2.52853 35.9333 2.93333C35.9333 3.33813 35.6048 3.66667 35.2 3.66667C34.7952 3.66667 34.4667 3.33813 34.4667 2.93333C34.4667 2.52853 34.7952 2.2 35.2 2.2ZM22 1.46667C22.4048 1.46667 22.7333 1.7952 22.7333 2.2C22.7333 2.6048 22.4048 2.93333 22 2.93333C21.5952 2.93333 21.2667 2.6048 21.2667 2.2C21.2667 1.7952 21.5952 1.46667 22 1.46667ZM8.8 3.66667C8.3952 3.66667 8.06667 3.33813 8.06667 2.93333C8.06667 2.52853 8.3952 2.2 8.8 2.2C9.2048 2.2 9.53333 2.52853 9.53333 2.93333C9.53333 3.33813 9.2048 3.66667 8.8 3.66667ZM2.93333 8.06667C3.33813 8.06667 3.66667 8.3952 3.66667 8.8C3.66667 9.2048 3.33813 9.53333 2.93333 9.53333C2.52853 9.53333 2.2 9.2048 2.2 8.8C2.2 8.3952 2.52853 8.06667 2.93333 8.06667ZM2.2 22.7333C1.7952 22.7333 1.46667 22.4048 1.46667 22C1.46667 21.5952 1.7952 21.2667 2.2 21.2667C2.6048 21.2667 2.93333 21.5952 2.93333 22C2.93333 22.4048 2.6048 22.7333 2.2 22.7333ZM2.93333 35.9333C2.52853 35.9333 2.2 35.6048 2.2 35.2C2.2 34.7952 2.52853 34.4667 2.93333 34.4667C3.33813 34.4667 3.66667 34.7952 3.66667 35.2C3.66667 35.6048 3.33813 35.9333 2.93333 35.9333ZM8.8 41.8C8.3952 41.8 8.06667 41.4715 8.06667 41.0667C8.06667 40.6619 8.3952 40.3333 8.8 40.3333C9.2048 40.3333 9.53333 40.6619 9.53333 41.0667C9.53333 41.4715 9.2048 41.8 8.8 41.8ZM22 42.5333C21.5952 42.5333 21.2667 42.2048 21.2667 41.8C21.2667 41.3952 21.5952 41.0667 22 41.0667C22.4048 41.0667 22.7333 41.3952 22.7333 41.8C22.7333 42.2048 22.4048 42.5333 22 42.5333ZM35.2 40.3333C35.6048 40.3333 35.9333 40.6619 35.9333 41.0667C35.9333 41.4715 35.6048 41.8 35.2 41.8C34.7952 41.8 34.4667 41.4715 34.4667 41.0667C34.4667 40.6619 34.7952 40.3333 35.2 40.3333ZM41.0667 35.9333C40.6619 35.9333 40.3333 35.6048 40.3333 35.2C40.3333 34.7952 40.6619 34.4667 41.0667 34.4667C41.4715 34.4667 41.8 34.7952 41.8 35.2C41.8 35.6048 41.4715 35.9333 41.0667 35.9333ZM33.7333 32.2667C33.7333 33.0755 33.0755 33.7333 32.2667 33.7333H11.7333C10.9245 33.7333 10.2667 33.0755 10.2667 32.2667V11.7333C10.2667 10.9245 10.9245 10.2667 11.7333 10.2667H32.2667C33.0755 10.2667 33.7333 10.9245 33.7333 11.7333V32.2667ZM41.8 22.7333C41.3952 22.7333 41.0667 22.4048 41.0667 22C41.0667 21.5952 41.3952 21.2667 41.8 21.2667C42.2048 21.2667 42.5333 21.5952 42.5333 22C42.5333 22.4048 42.2048 22.7333 41.8 22.7333Z" fill="#8E76E3"/>
<path d="M18.7079 16.2872C18.5913 15.7651 18.1359 15.3999 17.5998 15.3999C17.0638 15.3999 16.6084 15.7651 16.491 16.2887L13.95 27.7074C13.8628 28.1027 14.1121 28.4943 14.5074 28.5823C14.8968 28.6688 15.2935 28.4217 15.3822 28.025L16.2336 24.1992H18.9653L19.8167 28.025C19.893 28.3674 20.1966 28.5992 20.5324 28.5992C20.5852 28.5992 20.6395 28.5933 20.6923 28.5823C21.0876 28.4943 21.3369 28.1027 21.2496 27.7074L18.7079 16.2872ZM16.5607 22.7332L17.6006 18.0604L18.6404 22.7332H16.5607Z" fill="#8E76E3"/>
<path d="M27.8667 16.8666C28.2723 16.8666 28.6001 16.5388 28.6001 16.1332C28.6001 15.7277 28.2723 15.3999 27.8667 15.3999H23.4667C23.0612 15.3999 22.7334 15.7277 22.7334 16.1332C22.7334 16.5388 23.0612 16.8666 23.4667 16.8666H24.9334V27.1332H23.4667C23.0612 27.1332 22.7334 27.461 22.7334 27.8666C22.7334 28.2721 23.0612 28.5999 23.4667 28.5999H27.8667C28.2723 28.5999 28.6001 28.2721 28.6001 27.8666C28.6001 27.461 28.2723 27.1332 27.8667 27.1332H26.4001V16.8666H27.8667Z" fill="#8E76E3"/>
</g>
<defs>
<clipPath id="clip0_296_2126">
<rect width="44" height="44" fill="white"/>
</clipPath>
</defs>
</svg>
