<svg width="44" height="44" viewBox="0 0 44 44" fill="none" xmlns="http://www.w3.org/2000/svg">
<path d="M6.87515 2.06128C6.14646 2.06341 5.44822 2.35382 4.93296 2.86909C4.41769 3.38435 4.12728 4.08259 4.12515 4.81128C4.11792 5.4945 4.37395 6.15428 4.84015 6.65378C5.09667 6.9394 5.41043 7.16782 5.76104 7.32418C6.11165 7.48055 6.49125 7.56136 6.87515 7.56136C7.25905 7.56136 7.63865 7.48055 7.98926 7.32418C8.33987 7.16782 8.65363 6.9394 8.91015 6.65378C9.37635 6.15428 9.63238 5.4945 9.62515 4.81128C9.62302 4.08259 9.3326 3.38435 8.81734 2.86909C8.30208 2.35382 7.60384 2.06341 6.87515 2.06128ZM5.50015 4.81128C5.50015 4.53933 5.58079 4.27349 5.73188 4.04737C5.88297 3.82125 6.09771 3.64502 6.34896 3.54095C6.60021 3.43687 6.87667 3.40965 7.1434 3.4627C7.41012 3.51575 7.65512 3.64671 7.84742 3.83901C8.03972 4.0313 8.17067 4.27631 8.22373 4.54303C8.27678 4.80975 8.24955 5.08622 8.14548 5.33747C8.04141 5.58872 7.86518 5.80346 7.63906 5.95455C7.41294 6.10564 7.1471 6.18628 6.87515 6.18628C6.51081 6.18519 6.16171 6.03998 5.90408 5.78235C5.64645 5.52472 5.50124 5.17562 5.50015 4.81128Z" fill="#8E76E3"/>
<path d="M8.91003 6.65374C8.27575 6.3461 7.57998 6.18628 6.87503 6.18628C6.17009 6.18628 5.47431 6.3461 4.84003 6.65374C4.01087 7.03765 3.30881 7.6507 2.81668 8.42057C2.32455 9.19045 2.06288 10.085 2.06253 10.9987C2.06164 11.0893 2.07881 11.1791 2.11305 11.2629C2.14728 11.3467 2.19789 11.4228 2.26191 11.4869C2.32593 11.5509 2.40207 11.6015 2.48589 11.6357C2.5697 11.67 2.6595 11.6871 2.75003 11.6862H11C11.0906 11.6871 11.1804 11.67 11.2642 11.6357C11.348 11.6015 11.4241 11.5509 11.4882 11.4869C11.5522 11.4228 11.6028 11.3467 11.637 11.2629C11.6713 11.1791 11.6884 11.0893 11.6875 10.9987C11.6872 10.085 11.4255 9.19045 10.9334 8.42057C10.4413 7.6507 9.73919 7.03765 8.91003 6.65374ZM3.50628 10.3112C3.66494 9.53489 4.08688 8.83717 4.70072 8.33609C5.31457 7.83501 6.08264 7.56132 6.87503 7.56132C7.66743 7.56132 8.4355 7.83501 9.04935 8.33609C9.66319 8.83717 10.0851 9.53489 10.2438 10.3112H3.50628Z" fill="#8E76E3"/>
<path d="M6.87515 32.3113C6.14646 32.3134 5.44822 32.6038 4.93296 33.1191C4.41769 33.6344 4.12728 34.3326 4.12515 35.0613C4.11792 35.7445 4.37395 36.4043 4.84015 36.9038C5.09667 37.1894 5.41043 37.4178 5.76104 37.5742C6.11165 37.7306 6.49125 37.8114 6.87515 37.8114C7.25905 37.8114 7.63865 37.7306 7.98926 37.5742C8.33987 37.4178 8.65363 37.1894 8.91015 36.9038C9.37635 36.4043 9.63238 35.7445 9.62515 35.0613C9.62302 34.3326 9.3326 33.6344 8.81734 33.1191C8.30208 32.6038 7.60384 32.3134 6.87515 32.3113ZM5.50015 35.0613C5.50015 34.7893 5.58079 34.5235 5.73188 34.2974C5.88297 34.0713 6.09771 33.895 6.34896 33.7909C6.60021 33.6869 6.87667 33.6596 7.1434 33.7127C7.41012 33.7658 7.65512 33.8967 7.84742 34.089C8.03972 34.2813 8.17067 34.5263 8.22373 34.793C8.27678 35.0598 8.24955 35.3362 8.14548 35.5875C8.04141 35.8387 7.86518 36.0535 7.63906 36.2046C7.41294 36.3556 7.1471 36.4363 6.87515 36.4363C6.51081 36.4352 6.16171 36.29 5.90408 36.0324C5.64645 35.7747 5.50124 35.4256 5.50015 35.0613Z" fill="#8E76E3"/>
<path d="M8.91003 36.9037C8.27575 36.5961 7.57998 36.4363 6.87503 36.4363C6.17009 36.4363 5.47431 36.5961 4.84003 36.9037C4.01087 37.2877 3.30881 37.9007 2.81668 38.6706C2.32455 39.4404 2.06288 40.335 2.06253 41.2487C2.06164 41.3393 2.07881 41.4291 2.11305 41.5129C2.14728 41.5967 2.19789 41.6728 2.26191 41.7369C2.32593 41.8009 2.40207 41.8515 2.48589 41.8857C2.5697 41.92 2.6595 41.9371 2.75003 41.9362H11C11.0906 41.9371 11.1804 41.92 11.2642 41.8857C11.348 41.8515 11.4241 41.8009 11.4882 41.7369C11.5522 41.6728 11.6028 41.5967 11.637 41.5129C11.6713 41.4291 11.6884 41.3393 11.6875 41.2487C11.6872 40.335 11.4255 39.4404 10.9334 38.6706C10.4413 37.9007 9.73919 37.2877 8.91003 36.9037ZM3.50628 40.5612C3.66494 39.7849 4.08688 39.0872 4.70072 38.5861C5.31457 38.085 6.08264 37.8113 6.87503 37.8113C7.66743 37.8113 8.4355 38.085 9.04935 38.5861C9.66319 39.0872 10.0851 39.7849 10.2438 40.5612H3.50628Z" fill="#8E76E3"/>
<path d="M37.1251 2.06128C36.3965 2.06341 35.6982 2.35382 35.183 2.86909C34.6677 3.38435 34.3773 4.08259 34.3751 4.81128C34.3679 5.4945 34.624 6.15428 35.0901 6.65378C35.3467 6.9394 35.6604 7.16782 36.011 7.32418C36.3617 7.48055 36.7413 7.56136 37.1251 7.56136C37.509 7.56136 37.8886 7.48055 38.2393 7.32418C38.5899 7.16782 38.9036 6.9394 39.1601 6.65378C39.6263 6.15428 39.8824 5.4945 39.8751 4.81128C39.873 4.08259 39.5826 3.38435 39.0673 2.86909C38.5521 2.35382 37.8538 2.06341 37.1251 2.06128ZM35.7501 4.81128C35.7501 4.53933 35.8308 4.27349 35.9819 4.04737C36.133 3.82125 36.3477 3.64502 36.599 3.54095C36.8502 3.43687 37.1267 3.40965 37.3934 3.4627C37.6601 3.51575 37.9051 3.64671 38.0974 3.83901C38.2897 4.0313 38.4207 4.27631 38.4737 4.54303C38.5268 4.80975 38.4996 5.08622 38.3955 5.33747C38.2914 5.58872 38.1152 5.80346 37.8891 5.95455C37.6629 6.10564 37.3971 6.18628 37.1251 6.18628C36.7608 6.18519 36.4117 6.03998 36.1541 5.78235C35.8965 5.52472 35.7512 5.17562 35.7501 4.81128Z" fill="#8E76E3"/>
<path d="M39.16 6.65374C38.5258 6.3461 37.83 6.18628 37.125 6.18628C36.4201 6.18628 35.7243 6.3461 35.09 6.65374C34.2609 7.03765 33.5588 7.6507 33.0667 8.42057C32.5745 9.19045 32.3129 10.085 32.3125 10.9987C32.3116 11.0893 32.3288 11.1791 32.363 11.2629C32.3973 11.3467 32.4479 11.4228 32.5119 11.4869C32.5759 11.5509 32.6521 11.6015 32.7359 11.6357C32.8197 11.67 32.9095 11.6871 33 11.6862H41.25C41.3406 11.6871 41.4304 11.67 41.5142 11.6357C41.598 11.6015 41.6741 11.5509 41.7382 11.4869C41.8022 11.4228 41.8528 11.3467 41.887 11.2629C41.9213 11.1791 41.9384 11.0893 41.9375 10.9987C41.9372 10.085 41.6755 9.19045 41.1834 8.42057C40.6913 7.6507 39.9892 7.03765 39.16 6.65374ZM33.7563 10.3112C33.9149 9.53489 34.3369 8.83717 34.9507 8.33609C35.5646 7.83501 36.3326 7.56132 37.125 7.56132C37.9174 7.56132 38.6855 7.83501 39.2993 8.33609C39.9132 8.83717 40.3351 9.53489 40.4938 10.3112H33.7563Z" fill="#8E76E3"/>
<path d="M37.1251 32.3113C36.3965 32.3134 35.6982 32.6038 35.183 33.1191C34.6677 33.6344 34.3773 34.3326 34.3751 35.0613C34.3679 35.7445 34.624 36.4043 35.0901 36.9038C35.3467 37.1894 35.6604 37.4178 36.011 37.5742C36.3617 37.7306 36.7413 37.8114 37.1251 37.8114C37.509 37.8114 37.8886 37.7306 38.2393 37.5742C38.5899 37.4178 38.9036 37.1894 39.1601 36.9038C39.6263 36.4043 39.8824 35.7445 39.8751 35.0613C39.873 34.3326 39.5826 33.6344 39.0673 33.1191C38.5521 32.6038 37.8538 32.3134 37.1251 32.3113ZM35.7501 35.0613C35.7501 34.7893 35.8308 34.5235 35.9819 34.2974C36.133 34.0713 36.3477 33.895 36.599 33.7909C36.8502 33.6869 37.1267 33.6596 37.3934 33.7127C37.6601 33.7658 37.9051 33.8967 38.0974 34.089C38.2897 34.2813 38.4207 34.5263 38.4737 34.793C38.5268 35.0598 38.4996 35.3362 38.3955 35.5875C38.2914 35.8387 38.1152 36.0535 37.8891 36.2046C37.6629 36.3556 37.3971 36.4363 37.1251 36.4363C36.7608 36.4352 36.4117 36.29 36.1541 36.0324C35.8965 35.7747 35.7512 35.4256 35.7501 35.0613Z" fill="#8E76E3"/>
<path d="M39.16 36.9037C38.5258 36.5961 37.83 36.4363 37.125 36.4363C36.4201 36.4363 35.7243 36.5961 35.09 36.9037C34.2609 37.2877 33.5588 37.9007 33.0667 38.6706C32.5745 39.4404 32.3129 40.335 32.3125 41.2487C32.3116 41.3393 32.3288 41.4291 32.363 41.5129C32.3973 41.5967 32.4479 41.6728 32.5119 41.7369C32.5759 41.8009 32.6521 41.8515 32.7359 41.8857C32.8197 41.92 32.9095 41.9371 33 41.9362H41.25C41.3406 41.9371 41.4304 41.92 41.5142 41.8857C41.598 41.8515 41.6741 41.8009 41.7382 41.7369C41.8022 41.6728 41.8528 41.5967 41.887 41.5129C41.9213 41.4291 41.9384 41.3393 41.9375 41.2487C41.9372 40.335 41.6755 39.4404 41.1834 38.6706C40.6913 37.9007 39.9892 37.2877 39.16 36.9037ZM33.7563 40.5612C33.9149 39.7849 34.3369 39.0872 34.9507 38.5861C35.5646 38.085 36.3326 37.8113 37.125 37.8113C37.9174 37.8113 38.6855 38.085 39.2993 38.5861C39.9132 39.0872 40.3351 39.7849 40.4938 40.5612H33.7563Z" fill="#8E76E3"/>
<path d="M30.249 6.83292C30.1384 6.83307 30.0294 6.80634 29.9314 6.75504C27.4805 5.48458 24.7602 4.82144 21.9996 4.82144C19.239 4.82144 16.5188 5.48458 14.0679 6.75504C13.9062 6.83871 13.7181 6.85492 13.5445 6.8001C13.371 6.74529 13.2263 6.62392 13.142 6.46259C13.0578 6.30127 13.041 6.11313 13.0952 5.93941C13.1494 5.7657 13.2703 5.62056 13.4314 5.5358C16.0847 4.18209 19.0209 3.47632 21.9996 3.47632C24.9783 3.47632 27.9146 4.18209 30.5679 5.5358C30.7044 5.60698 30.8131 5.72192 30.8765 5.86222C30.9399 6.00252 30.9544 6.16005 30.9176 6.30956C30.8809 6.45908 30.795 6.59192 30.6737 6.68682C30.5525 6.78171 30.403 6.83316 30.249 6.83292Z" fill="#8E76E3"/>
<path d="M21.9996 40.5617C19.0164 40.5598 16.0775 39.8397 13.4314 38.4623C13.2703 38.3775 13.1494 38.2324 13.0952 38.0586C13.041 37.8849 13.0578 37.6968 13.142 37.5355C13.2263 37.3741 13.371 37.2528 13.5445 37.198C13.7181 37.1431 13.9062 37.1593 14.0679 37.243C16.5186 38.5141 19.2389 39.1776 21.9996 39.1776C24.7603 39.1776 27.4807 38.5141 29.9314 37.243C30.093 37.1593 30.2812 37.1431 30.4547 37.198C30.6282 37.2528 30.773 37.3741 30.8572 37.5355C30.9414 37.6968 30.9582 37.8849 30.904 38.0586C30.8498 38.2324 30.7289 38.3775 30.5679 38.4623C27.9217 39.8397 24.9828 40.5598 21.9996 40.5617Z" fill="#8E76E3"/>
<path d="M6.14654 30.9365C6.02078 30.9366 5.8974 30.9022 5.78981 30.8371C5.68221 30.772 5.59452 30.6786 5.53626 30.5672C4.15747 27.9216 3.4375 24.9823 3.4375 21.999C3.4375 19.0156 4.15747 16.0763 5.53626 13.4307C5.62066 13.269 5.76583 13.1475 5.93984 13.0929C6.11385 13.0382 6.30243 13.0549 6.46412 13.1393C6.6258 13.2237 6.74733 13.3689 6.80197 13.5429C6.85662 13.7169 6.8399 13.9055 6.7555 14.0672C5.47904 16.5163 4.8125 19.2372 4.8125 21.999C4.8125 24.7607 5.47904 27.4817 6.7555 29.9307C6.81024 30.0355 6.83705 30.1526 6.83333 30.2707C6.82962 30.3888 6.79551 30.504 6.73429 30.6051C6.67307 30.7062 6.58682 30.7898 6.48387 30.8479C6.38091 30.9059 6.26473 30.9364 6.14654 30.9365Z" fill="#8E76E3"/>
<path d="M37.8531 30.9365C37.735 30.9364 37.6188 30.9059 37.5158 30.8479C37.4129 30.7898 37.3266 30.7062 37.2654 30.6051C37.2042 30.504 37.1701 30.3888 37.1664 30.2707C37.1626 30.1526 37.1894 30.0355 37.2442 29.9307C38.5207 27.4817 39.1872 24.7607 39.1872 21.999C39.1872 19.2372 38.5207 16.5163 37.2442 14.0672C37.1598 13.9055 37.1431 13.7169 37.1977 13.5429C37.2524 13.3689 37.3739 13.2237 37.5356 13.1393C37.6973 13.0549 37.8858 13.0382 38.0598 13.0929C38.2339 13.1475 38.379 13.269 38.4634 13.4307C39.8422 16.0763 40.5622 19.0156 40.5622 21.999C40.5622 24.9823 39.8422 27.9216 38.4634 30.5672C38.4052 30.6786 38.3175 30.772 38.2099 30.8371C38.1023 30.9022 37.9789 30.9366 37.8531 30.9365Z" fill="#8E76E3"/>
<path d="M33.6734 22.3149C33.598 25.3034 32.3772 28.1486 30.2634 30.2624C28.1496 32.3763 25.3044 33.5971 22.3159 33.6724C22.9568 33.5795 23.5714 33.3543 24.1206 33.011C24.6698 32.6678 25.1415 32.2141 25.5059 31.6787C26.4353 30.4213 27.1038 28.9908 27.4722 27.4712C28.9917 27.1028 30.4223 26.4343 31.6797 25.5049C32.215 25.1405 32.6688 24.6688 33.012 24.1196C33.3552 23.5704 33.5805 22.9559 33.6734 22.3149Z" fill="#8E76E3"/>
<path d="M33.6734 21.6834C33.5805 21.0424 33.3552 20.4279 33.012 19.8787C32.6688 19.3295 32.2151 18.8577 31.6797 18.4934C30.4223 17.564 28.9917 16.8954 27.4722 16.5271C27.1038 15.0075 26.4353 13.577 25.5059 12.3196C25.1415 11.7842 24.6698 11.3305 24.1206 10.9873C23.5714 10.6441 22.9568 10.4188 22.3159 10.3259C25.3044 10.4013 28.1496 11.6221 30.2634 13.7359C32.3772 15.8497 33.598 18.6949 33.6734 21.6834Z" fill="#8E76E3"/>
<path d="M21.6837 10.3259C21.0428 10.4188 20.4282 10.6441 19.879 10.9873C19.3298 11.3305 18.8581 11.7842 18.4937 12.3196C17.5643 13.577 16.8958 15.0075 16.5274 16.5271C15.0078 16.8954 13.5773 17.564 12.3199 18.4934C11.7845 18.8577 11.3308 19.3295 10.9876 19.8787C10.6443 20.4279 10.4191 21.0424 10.3262 21.6834C10.4016 18.6949 11.6224 15.8497 13.7362 13.7359C15.85 11.6221 18.6952 10.4013 21.6837 10.3259Z" fill="#8E76E3"/>
<path d="M25.9324 27.8293C25.1074 30.3731 23.7599 32.1331 22.2474 32.2981C22.0829 32.3164 21.9169 32.3164 21.7524 32.2981C20.2399 32.1331 18.8924 30.3731 18.0674 27.8293C20.6674 28.306 23.3324 28.306 25.9324 27.8293Z" fill="#8E76E3"/>
<path d="M25.9324 16.1688C23.3324 15.6921 20.6674 15.6921 18.0674 16.1688C18.8924 13.625 20.2399 11.865 21.7524 11.7C21.9169 11.6817 22.0829 11.6817 22.2474 11.7C23.7599 11.865 25.1074 13.625 25.9324 16.1688Z" fill="#8E76E3"/>
<path d="M32.3126 21.9994C32.3149 22.0821 32.3103 22.1649 32.2988 22.2469C32.1338 23.7594 30.3738 25.1069 27.8301 25.9319C28.3068 23.3319 28.3068 20.6669 27.8301 18.0669C30.3738 18.8919 32.1338 20.2394 32.2988 21.7519C32.3103 21.8339 32.3149 21.9167 32.3126 21.9994Z" fill="#8E76E3"/>
<path d="M15.8125 21.9994C15.808 23.3185 15.9277 24.6352 16.17 25.9319C13.6263 25.1069 11.8663 23.7594 11.7013 22.2469C11.6829 22.0824 11.6829 21.9164 11.7013 21.7519C11.8663 20.2394 13.6263 18.8919 16.17 18.0669C15.9277 19.3636 15.808 20.6802 15.8125 21.9994Z" fill="#8E76E3"/>
<path d="M26.8125 21.9987C26.8185 23.4599 26.6617 24.9173 26.345 26.3437C23.4819 26.9671 20.5181 26.9671 17.655 26.3437C17.0317 23.4806 17.0317 20.5169 17.655 17.6537C20.5182 17.0305 23.4818 17.0305 26.345 17.6537C26.6617 19.0802 26.8185 20.5375 26.8125 21.9987Z" fill="#8E76E3"/>
<path d="M21.6837 33.6724C18.6952 33.5971 15.85 32.3763 13.7362 30.2624C11.6223 28.1486 10.4016 25.3034 10.3262 22.3149C10.4191 22.9559 10.6444 23.5704 10.9876 24.1196C11.3308 24.6688 11.7846 25.1405 12.3199 25.5049C13.5773 26.4343 15.0079 27.1028 16.5274 27.4712C16.8958 28.9908 17.5643 30.4213 18.4937 31.6787C18.8581 32.2141 19.3298 32.6678 19.879 33.011C20.4282 33.3543 21.0428 33.5795 21.6837 33.6724Z" fill="#8E76E3"/>
</svg>
