<svg width="44" height="44" viewBox="0 0 44 44" fill="none" xmlns="http://www.w3.org/2000/svg">
<path d="M34.8957 18.0378C34.8957 10.9275 29.111 5.14282 22.0007 5.14282C4.91734 5.7911 4.92198 30.2871 22.0009 30.9328C29.111 30.9328 34.8957 25.1481 34.8957 18.0378ZM22.0007 29.2135C15.8384 29.2135 10.825 24.2001 10.825 18.0378C11.3868 3.23213 32.6168 3.23626 33.1763 18.038C33.1763 24.2001 28.163 29.2135 22.0007 29.2135Z" fill="#8E76E3"/>
<path d="M34.5367 29.7896C35.8296 29.2476 36.9259 28.2926 37.635 27.0645C38.4469 25.6581 38.6948 23.9909 38.3398 22.4161C40.6048 20.0558 40.6048 16.0201 38.3398 13.6599C39.1213 10.4831 37.1033 6.98839 33.9617 6.07689C33.4818 4.53559 32.4336 3.21584 31.0271 2.40362C29.6207 1.59167 27.9532 1.34383 26.3787 1.69878C24.0183 -0.566348 19.9828 -0.566176 17.6225 1.69878C16.0477 1.34391 14.3805 1.59158 12.974 2.40362C11.5675 3.21575 10.5193 4.53559 10.0394 6.07689C8.49806 6.55675 7.1783 7.60494 6.36618 9.01153C5.55414 10.418 5.30621 12.0852 5.66125 13.66C3.39603 16.0204 3.39621 20.0558 5.66125 22.416C4.9387 25.3772 6.63482 28.6635 9.46441 29.7896L4.38396 38.5893C4.22931 38.8571 4.23042 39.1874 4.38697 39.4542C4.54326 39.721 4.83176 39.8832 5.14038 39.8788L9.42512 39.8195L11.5162 43.5598C11.667 43.8298 11.9513 43.9978 12.2606 44H12.2666C12.5735 44 12.8574 43.8363 13.011 43.5702L18.0917 34.7704C20.3114 36.5175 23.6901 36.5174 25.9098 34.7705L30.9904 43.5702C31.1441 43.8363 31.4279 44 31.7349 44H31.7408C32.0501 43.9978 32.3344 43.8298 32.4852 43.5598L34.5762 39.8195L38.861 39.8788C39.1696 39.8831 39.4581 39.7209 39.6144 39.4542C39.7709 39.1874 39.7721 38.8572 39.6174 38.5893L34.5367 29.7896ZM12.2785 41.4001L10.6758 38.5332C10.5217 38.2578 10.2299 38.0845 9.9135 38.0932L6.62941 38.1385L10.5931 31.2733C11.1554 32.2609 11.9742 33.0948 12.9741 33.6721C13.974 34.2495 15.1056 34.5416 16.2422 34.5347L12.2785 41.4001ZM22.0007 34.3715C20.6787 34.3715 19.4075 33.8123 18.513 32.8372C18.2871 32.5899 17.9358 32.4986 17.6214 32.5983C16.3592 32.9956 14.9787 32.8443 13.8337 32.1832C12.6888 31.5222 11.8676 30.4022 11.5806 29.1106C11.5082 28.7848 11.2537 28.5303 10.9279 28.4579C9.63617 28.1708 8.51629 27.3495 7.8552 26.2047C7.19429 25.0598 7.04299 23.6793 7.44016 22.4171C7.54039 22.0987 7.44729 21.7511 7.20126 21.5255C5.17227 19.7301 5.17245 16.3454 7.20126 14.5502C7.44721 14.3246 7.54039 13.977 7.44016 13.6586C7.04291 12.3964 7.19421 11.0158 7.8552 9.87094C8.5162 8.72612 9.63617 7.9048 10.9278 7.61775C11.2536 7.54537 11.5081 7.29091 11.5805 6.9651C11.8675 5.67345 12.6888 4.55339 13.8337 3.89239C14.9784 3.23148 16.359 3.08027 17.6213 3.47743C17.9396 3.5775 18.2872 3.48448 18.5129 3.23853C20.3083 1.20964 23.693 1.20981 25.4882 3.23853C25.7138 3.48448 26.0612 3.57767 26.3798 3.47743C27.6421 3.08018 29.0227 3.23157 30.1675 3.89239C31.3123 4.55339 32.1336 5.67345 32.4207 6.96501C32.493 7.29091 32.7475 7.54537 33.0734 7.61775C34.365 7.9048 35.4849 8.72612 36.146 9.87102C36.8069 11.0158 36.9581 12.3963 36.561 13.6586C36.4608 13.977 36.5539 14.3246 36.7999 14.5502C38.8288 16.3455 38.8285 19.7304 36.7999 21.5255C36.5539 21.7511 36.4608 22.0986 36.561 22.4171C36.9582 23.6794 36.8069 25.0599 36.146 26.2048C35.485 27.3495 34.3651 28.1708 33.0733 28.4579C32.7475 28.5303 32.493 28.7849 32.4207 29.1107C32.1336 30.4022 31.3123 31.5222 30.1674 32.1832C29.0227 32.8441 27.6421 32.9955 26.3798 32.5983C26.0615 32.4982 25.7139 32.5912 25.4882 32.8372C24.5938 33.8123 23.3226 34.3715 22.0007 34.3715ZM34.0877 38.0932C33.7728 38.0886 33.4793 38.2577 33.3255 38.5332L31.7228 41.4001L27.759 34.5348C28.8957 34.5417 30.0273 34.2495 31.0271 33.6721C32.027 33.0949 32.8458 32.2609 33.4082 31.2733L37.3718 38.1385L34.0877 38.0932Z" fill="#8E76E3"/>
<path d="M22.0011 10.3018C17.735 10.3018 14.2642 13.7726 14.2642 18.0387C14.6532 28.2888 29.3508 28.286 29.7382 18.0387C29.7381 13.7726 26.2673 10.3018 22.0011 10.3018ZM27.9576 17.1791H25.2497C25.1772 15.4749 24.8879 13.7803 24.3626 12.5039C26.2577 13.3155 27.655 15.0729 27.9576 17.1791ZM22.0011 24.0221C21.9335 24.0167 21.5055 23.7372 21.0925 22.5339C20.7509 21.5386 20.5366 20.2709 20.4734 18.8984H23.5289C23.4823 20.4796 22.9778 23.4497 22.0011 24.0221ZM20.4734 17.1791C20.5366 15.8066 20.7509 14.5389 21.0925 13.5436C21.5057 12.3396 21.9341 12.0605 22.001 12.0555C22.9813 12.6358 23.4799 15.5889 23.5289 17.1791H20.4734ZM19.6397 12.5039C19.1145 13.7803 18.8252 15.4749 18.7527 17.1791H16.0448C16.3473 15.0729 17.7447 13.3155 19.6397 12.5039ZM16.0447 18.8984H18.7526C18.8251 20.6026 19.1144 22.2972 19.6396 23.5736C17.7447 22.7621 16.3473 21.0046 16.0447 18.8984ZM24.3626 23.5736C24.8879 22.2971 25.1772 20.6026 25.2497 18.8984H27.9576C27.655 21.0046 26.2577 22.762 24.3626 23.5736Z" fill="#8E76E3"/>
</svg>
