<svg width="150" height="40" viewBox="0 0 150 40" fill="none" xmlns="http://www.w3.org/2000/svg">
<path d="M5.33591 37.2031L6.79786 29.8574H3.93387L4.13759 28.8149H11.0759L10.8602 29.8574H7.99618L6.52224 37.2031H5.33591ZM16.5871 32.4338H20.901L20.6973 33.4524H16.3834L16.5871 32.4338ZM15.94 36.1606H20.8411L20.6374 37.2031H14.538L16.2156 28.8149H22.1353L21.9316 29.8574H17.1982L15.94 36.1606ZM30.4869 37.299C29.6401 37.299 28.9171 37.1512 28.318 36.8556C27.7268 36.56 27.2714 36.1486 26.9519 35.6213C26.6403 35.0861 26.4845 34.467 26.4845 33.764C26.4845 33.0689 26.6044 32.4178 26.844 31.8107C27.0837 31.1956 27.4272 30.6563 27.8746 30.193C28.33 29.7296 28.8692 29.3701 29.4923 29.1145C30.1234 28.8508 30.8344 28.719 31.6253 28.719C32.3204 28.719 32.9355 28.8309 33.4707 29.0546C34.006 29.2782 34.4174 29.6018 34.705 30.0252L33.8422 30.7682C33.5946 30.4486 33.279 30.2049 32.8956 30.0372C32.5121 29.8694 32.0607 29.7855 31.5415 29.7855C30.9423 29.7855 30.403 29.8894 29.9237 30.0971C29.4524 30.2968 29.0489 30.5804 28.7134 30.9479C28.3779 31.3074 28.1222 31.7228 27.9465 32.1942C27.7707 32.6655 27.6829 33.1648 27.6829 33.6921C27.6829 34.1953 27.7907 34.6387 28.0064 35.0222C28.2301 35.3977 28.5536 35.6932 28.977 35.9089C29.4084 36.1246 29.9397 36.2325 30.5708 36.2325C31.0821 36.2325 31.5494 36.1486 31.9728 35.9808C32.4042 35.8131 32.7837 35.5654 33.1112 35.2379L33.8063 36.0288C33.4228 36.4522 32.9435 36.7717 32.3683 36.9874C31.7931 37.1951 31.166 37.299 30.4869 37.299ZM46.5762 28.8149H47.7745L46.0969 37.2031H44.8986L46.5762 28.8149ZM40.0813 37.2031H38.883L40.5607 28.8149H41.759L40.0813 37.2031ZM45.7614 33.4644H40.7284L40.9321 32.4218H45.9651L45.7614 33.4644ZM52.4423 37.2031L54.1199 28.8149H55.1025L59.1289 35.7412L58.7694 35.6932L60.1355 28.8149H61.3338L59.6562 37.2031H58.6735L54.6472 30.2768L55.0067 30.3248L53.6406 37.2031H52.4423ZM70.0399 37.299C69.209 37.299 68.498 37.1512 67.9069 36.8556C67.3157 36.56 66.8643 36.1486 66.5528 35.6213C66.2492 35.0861 66.0974 34.467 66.0974 33.764C66.0974 33.0689 66.2172 32.4178 66.4569 31.8107C66.6966 31.1956 67.0401 30.6563 67.4875 30.193C67.9348 29.7296 68.4701 29.3701 69.0932 29.1145C69.7163 28.8508 70.4153 28.719 71.1903 28.719C72.0291 28.719 72.7441 28.8668 73.3352 29.1624C73.9264 29.458 74.3738 29.8734 74.6774 30.4087C74.9889 30.9359 75.1447 31.5511 75.1447 32.2541C75.1447 32.9491 75.0249 33.6042 74.7852 34.2193C74.5455 34.8265 74.202 35.3617 73.7547 35.8251C73.3073 36.2884 72.768 36.6519 72.1369 36.9155C71.5138 37.1712 70.8148 37.299 70.0399 37.299ZM70.1477 36.2325C70.7229 36.2325 71.2462 36.1326 71.7175 35.9329C72.1889 35.7252 72.5883 35.4416 72.9158 35.0821C73.2434 34.7146 73.495 34.2952 73.6708 33.8239C73.8465 33.3525 73.9344 32.8532 73.9344 32.326C73.9344 31.8227 73.8266 31.3833 73.6109 31.0078C73.3952 30.6244 73.0756 30.3248 72.6522 30.1091C72.2288 29.8934 71.7095 29.7855 71.0944 29.7855C70.5112 29.7855 69.9839 29.8894 69.5126 30.0971C69.0493 30.2968 68.6498 30.5804 68.3143 30.9479C67.9868 31.3074 67.7351 31.7228 67.5594 32.1942C67.3836 32.6655 67.2957 33.1648 67.2957 33.6921C67.2957 34.1953 67.4036 34.6387 67.6193 35.0222C67.843 35.3977 68.1625 35.6932 68.5779 35.9089C69.0013 36.1246 69.5246 36.2325 70.1477 36.2325ZM79.9002 37.2031L81.5778 28.8149H82.7761L81.3022 36.1606H85.8558L85.6521 37.2031H79.9002ZM94.736 37.299C93.9052 37.299 93.1942 37.1512 92.603 36.8556C92.0118 36.56 91.5605 36.1486 91.2489 35.6213C90.9453 35.0861 90.7935 34.467 90.7935 33.764C90.7935 33.0689 90.9134 32.4178 91.153 31.8107C91.3927 31.1956 91.7362 30.6563 92.1836 30.193C92.631 29.7296 93.1662 29.3701 93.7893 29.1145C94.4125 28.8508 95.1115 28.719 95.8864 28.719C96.7252 28.719 97.4402 28.8668 98.0314 29.1624C98.6225 29.458 99.0699 29.8734 99.3735 30.4087C99.6851 30.9359 99.8408 31.5511 99.8408 32.2541C99.8408 32.9491 99.721 33.6042 99.4813 34.2193C99.2417 34.8265 98.8982 35.3617 98.4508 35.8251C98.0034 36.2884 97.4642 36.6519 96.8331 36.9155C96.2099 37.1712 95.5109 37.299 94.736 37.299ZM94.8438 36.2325C95.419 36.2325 95.9423 36.1326 96.4136 35.9329C96.885 35.7252 97.2844 35.4416 97.612 35.0821C97.9395 34.7146 98.1912 34.2952 98.3669 33.8239C98.5427 33.3525 98.6305 32.8532 98.6305 32.326C98.6305 31.8227 98.5227 31.3833 98.307 31.0078C98.0913 30.6244 97.7717 30.3248 97.3483 30.1091C96.9249 29.8934 96.4057 29.7855 95.7905 29.7855C95.2073 29.7855 94.6801 29.8894 94.2087 30.0971C93.7454 30.2968 93.3459 30.5804 93.0104 30.9479C92.6829 31.3074 92.4312 31.7228 92.2555 32.1942C92.0797 32.6655 91.9918 33.1648 91.9918 33.6921C91.9918 34.1953 92.0997 34.6387 92.3154 35.0222C92.5391 35.3977 92.8586 35.6932 93.2741 35.9089C93.6975 36.1246 94.2207 36.2325 94.8438 36.2325ZM108.695 37.299C107.864 37.299 107.149 37.1512 106.55 36.8556C105.958 36.56 105.499 36.1486 105.171 35.6213C104.852 35.0861 104.692 34.467 104.692 33.764C104.692 33.0689 104.812 32.4178 105.052 31.8107C105.291 31.1956 105.635 30.6563 106.082 30.193C106.538 29.7296 107.081 29.3701 107.712 29.1145C108.351 28.8508 109.066 28.719 109.857 28.719C110.592 28.719 111.231 28.8309 111.774 29.0546C112.325 29.2782 112.765 29.5978 113.092 30.0132L112.23 30.7442C111.95 30.4166 111.606 30.177 111.199 30.0252C110.8 29.8654 110.336 29.7855 109.809 29.7855C109.21 29.7855 108.671 29.8894 108.191 30.0971C107.712 30.2968 107.3 30.5764 106.957 30.9359C106.613 31.2874 106.35 31.7028 106.166 32.1822C105.982 32.6535 105.89 33.1568 105.89 33.6921C105.89 34.1953 105.998 34.6387 106.214 35.0222C106.438 35.3977 106.765 35.6932 107.197 35.9089C107.636 36.1246 108.179 36.2325 108.826 36.2325C109.298 36.2325 109.733 36.1526 110.133 35.9928C110.54 35.833 110.923 35.6014 111.283 35.2978L111.75 36.2565C111.343 36.584 110.871 36.8396 110.336 37.0234C109.809 37.2071 109.262 37.299 108.695 37.299ZM110.648 36.0767L111.259 32.9611H112.409L111.75 36.2565L110.648 36.0767ZM117.687 37.2031L119.365 28.8149H120.563L118.886 37.2031H117.687ZM127.281 32.4338H131.595L131.391 33.4524H127.077L127.281 32.4338ZM126.634 36.1606H131.535L131.331 37.2031H125.232L126.909 28.8149H132.829L132.625 29.8574H127.892L126.634 36.1606ZM139.683 37.299C139.259 37.299 138.844 37.2551 138.436 37.1672C138.037 37.0713 137.669 36.9475 137.334 36.7957C137.006 36.6439 136.743 36.4722 136.543 36.2804L137.07 35.3218C137.286 35.5135 137.538 35.6813 137.825 35.8251C138.121 35.9689 138.432 36.0807 138.76 36.1606C139.095 36.2405 139.439 36.2804 139.79 36.2804C140.238 36.2804 140.633 36.2245 140.977 36.1127C141.32 36.0008 141.584 35.841 141.768 35.6333C141.959 35.4176 142.055 35.158 142.055 34.8544C142.055 34.6068 141.975 34.4031 141.816 34.2433C141.656 34.0835 141.448 33.9557 141.192 33.8598C140.945 33.756 140.665 33.6641 140.354 33.5842C140.05 33.4963 139.742 33.4005 139.431 33.2966C139.127 33.1848 138.848 33.049 138.592 32.8892C138.344 32.7294 138.141 32.5257 137.981 32.278C137.829 32.0224 137.753 31.7028 137.753 31.3194C137.753 30.7841 137.901 30.3248 138.197 29.9413C138.492 29.5499 138.9 29.2503 139.419 29.0426C139.946 28.8269 140.553 28.719 141.24 28.719C141.76 28.719 142.255 28.7789 142.726 28.8988C143.198 29.0186 143.601 29.1944 143.937 29.426L143.457 30.4087C143.146 30.185 142.794 30.0172 142.403 29.9054C142.011 29.7935 141.604 29.7376 141.18 29.7376C140.725 29.7376 140.33 29.7975 139.994 29.9173C139.659 30.0372 139.399 30.2089 139.215 30.4326C139.031 30.6483 138.936 30.904 138.928 31.1995C138.928 31.4552 139.003 31.6629 139.155 31.8227C139.307 31.9825 139.511 32.1143 139.766 32.2181C140.022 32.322 140.302 32.4218 140.605 32.5177C140.917 32.6056 141.224 32.7014 141.528 32.8053C141.831 32.9012 142.111 33.029 142.367 33.1888C142.63 33.3405 142.838 33.5363 142.99 33.7759C143.15 34.0156 143.23 34.3192 143.23 34.6867C143.23 35.2219 143.078 35.6892 142.774 36.0887C142.479 36.4801 142.063 36.7797 141.528 36.9874C141.001 37.1951 140.386 37.299 139.683 37.299Z" fill="black"/>
<path d="M31.0823 10.2781H36.5862V13.0737H30.5055L31.0823 10.2781ZM29.3781 19.8849H25.9697L29.6403 2.09448H43.0378L42.461 4.86471H32.4719L29.3781 19.8849Z" fill="#9370DB"/>
<path d="M52.4276 20.1391C50.5749 20.1391 48.993 19.8171 47.6821 19.1733C46.3712 18.5295 45.3662 17.6399 44.667 16.5047C43.9853 15.3526 43.6445 14.031 43.6445 12.54C43.6445 11.0321 43.9067 9.63424 44.431 8.34655C44.9554 7.04192 45.7157 5.90672 46.712 4.94095C47.7083 3.97518 48.8969 3.22121 50.2777 2.67902C51.6585 2.1199 53.1967 1.84033 54.8921 1.84033C56.7274 1.84033 58.3005 2.16225 59.6114 2.8061C60.9223 3.44994 61.9274 4.34794 62.6265 5.50008C63.3257 6.63528 63.6753 7.94838 63.6753 9.43939C63.6753 10.9473 63.4043 12.3536 62.8625 13.6583C62.3381 14.946 61.5778 16.0727 60.5815 17.0384C59.5852 18.0042 58.3966 18.7667 57.0158 19.3258C55.6525 19.868 54.1231 20.1391 52.4276 20.1391ZM52.716 17.2418C53.8696 17.2418 54.9096 17.0469 55.836 16.6572C56.7624 16.2506 57.5489 15.6999 58.1956 15.0053C58.8598 14.2936 59.3667 13.4804 59.7163 12.5654C60.0659 11.6335 60.2407 10.6593 60.2407 9.64271C60.2407 8.67694 60.0222 7.82131 59.5852 7.0758C59.1482 6.3303 58.5103 5.75423 57.6713 5.34759C56.8323 4.94095 55.801 4.73763 54.5775 4.73763C53.4414 4.73763 52.4014 4.94095 51.4575 5.34759C50.5312 5.73728 49.7359 6.28794 49.0717 6.99956C48.425 7.69423 47.9268 8.50751 47.5772 9.43939C47.2451 10.3543 47.0791 11.3201 47.0791 12.3367C47.0791 13.3025 47.2888 14.1581 47.7083 14.9036C48.1453 15.6491 48.7833 16.2252 49.6223 16.6318C50.4612 17.0384 51.4925 17.2418 52.716 17.2418Z" fill="#9370DB"/>
<path d="M65.5046 19.8849L69.1752 2.09448H76.3065C78.5263 2.09448 80.2393 2.56889 81.4453 3.51772C82.6688 4.4496 83.2806 5.7627 83.2806 7.45703C83.2806 8.94803 82.9223 10.2357 82.2056 11.3201C81.5065 12.3875 80.5015 13.2177 79.1905 13.8108C77.8796 14.3868 76.324 14.6749 74.5237 14.6749H68.5459L70.3025 13.1754L68.9392 19.8849H65.5046ZM77.565 19.8849L73.8158 13.4295H77.4339L81.1831 19.8849H77.565ZM70.2239 13.5566L69.0703 11.9555H74.6286C76.2891 11.9555 77.5737 11.5997 78.4826 10.888C79.3915 10.1764 79.846 9.13441 79.846 7.762C79.846 6.79624 79.5052 6.07615 78.8235 5.60174C78.1593 5.12733 77.198 4.89012 75.9395 4.89012H70.5909L72.3738 3.23815L70.2239 13.5566Z" fill="#9370DB"/>
<path d="M90.1609 19.8849L93.2547 4.89012H87.172L87.7488 2.09448H103.296L102.719 4.89012H96.6368L93.5693 19.8849H90.1609Z" fill="#9370DB"/>
<path d="M121.402 2.09448H124.784L121.113 19.8849H117.731L121.402 2.09448ZM109.754 12.2604L106.4 12.2014L108.502 2.09448H111.911L109.754 12.2604ZM119.566 12.2604H109.754L110.128 9.43939H120.169L119.566 12.2604Z" fill="#9370DB"/>
<path d="M104.105 19.9438C104.148 19.2216 104.399 18.2453 104.69 17.6024C104.981 16.9596 105.384 16.3954 105.87 15.9481C106.357 15.5009 106.917 15.181 107.511 15.0102C108.105 14.8394 108.721 14.8216 109.315 14.9582L108.415 19.9103L104.105 19.9438Z" fill="#9370DB"/>
<path fill-rule="evenodd" clip-rule="evenodd" d="M5.51063 6.71498L2.90405 19.3485H11.4774C13.1904 19.3485 14.746 19.1029 16.1443 18.6115C17.5426 18.1032 18.7399 17.4001 19.7362 16.5021C20.75 15.5871 21.5278 14.4858 22.0696 13.1981C22.6289 11.9104 22.9086 10.4787 22.9086 8.90301C22.9086 7.41201 22.5503 6.11585 21.8337 5.01453C21.1345 3.91322 20.1207 3.06606 18.7923 2.47304C17.4639 1.86308 15.8646 1.55811 13.9944 1.55811H6.57461L5.99842 4.3508H14.0281V4.36021C15.1444 4.39687 16.0858 4.58957 16.8522 4.93829C17.7261 5.32798 18.3816 5.87864 18.8185 6.59026C19.2555 7.30187 19.474 8.14057 19.474 9.10633C19.474 10.5296 19.1594 11.8003 18.5301 12.9186C17.9009 14.0368 16.992 14.9263 15.8034 15.5871C14.6324 16.231 13.2253 16.5529 11.5823 16.5529H6.88923L8.91901 6.71498H5.51063Z" fill="#9370DB"/>
<path d="M1.21945 1.55908L12.8043 1.55908V4.33699H0L1.21945 1.55908Z" fill="#9370DB"/>
<path d="M142.836 9.97272L132.91 0.351151C132.427 -0.117129 131.644 -0.117129 131.16 0.351151C130.677 0.819547 130.677 1.57904 131.16 2.0475L135.258 6.01927H127.377C126.967 6.01927 126.634 6.34151 126.634 6.73894C126.634 7.13637 126.967 7.45861 127.377 7.45861H136.742L138.974 9.45665H125.704H112.213C111.529 9.45665 110.975 10.1585 110.975 10.8209C110.975 11.4833 111.529 12.215 112.213 12.215L138.974 12.0204L136.742 14.1832H131.16C130.75 14.1832 130.418 14.5055 130.418 14.9029C130.418 15.3003 130.75 15.6226 131.16 15.6226H135.258L131.16 19.5945C130.677 20.0629 130.677 20.8224 131.16 21.2908C131.402 21.525 131.718 21.6421 132.035 21.6421C132.352 21.6421 132.668 21.525 132.91 21.2908L142.836 11.6691C143.319 11.2007 143.319 10.4412 142.836 9.97272Z" fill="#9370DB"/>
<path d="M149.638 10.0417L141.677 2.32484C141.194 1.85656 140.41 1.85656 139.927 2.32484C139.444 2.79324 139.444 3.55274 139.927 4.02119L147.013 10.8899L139.927 17.7587C139.444 18.2271 139.444 18.9866 139.927 19.4551C140.169 19.6892 140.485 19.8063 140.802 19.8063C141.119 19.8063 141.435 19.6892 141.677 19.4551L149.638 11.738C150.121 11.2696 150.121 10.5101 149.638 10.0417Z" fill="#EA4EE3"/>
</svg>
